<?xml version="1.0" encoding="UTF-8"?>
<svg width="1200pt" height="1200pt" version="1.1" viewBox="0 0 1200 1200" xmlns="http://www.w3.org/2000/svg">
 <path d="m101.75 925h425c6.625-0.019531 12.973-2.6602 17.656-7.3438s7.3242-11.031 7.3438-17.656v-275c-0.019531-6.625-2.6602-12.973-7.3438-17.656s-11.031-7.3242-17.656-7.3438c-58.688 0.007812-271.97-0.003906-326.75 0v-250h73.25c2.9766 26.91 14.441 52.172 32.734 72.129 18.293 19.957 42.469 33.57 69.016 38.871v39c0.019531 6.625 2.6602 12.973 7.3438 17.656s11.031 7.3242 17.656 7.3438h400c6.625-0.019531 12.973-2.6602 17.656-7.3438s7.3242-11.031 7.3438-17.656v-39c26.551-5.3008 50.723-18.914 69.016-38.871 18.293-19.957 29.758-45.219 32.734-72.129h73.25v250c-49.738 0.007812-269.26-0.003906-323.25 0-6.6367-0.023438-13.008 2.6016-17.703 7.2969-4.6914 4.6953-7.3203 11.066-7.2969 17.703v275c-0.023438 6.6367 2.6055 13.008 7.2969 17.703 4.6953 4.6953 11.066 7.3203 17.703 7.2969h425c6.625-0.019531 12.973-2.6602 17.656-7.3438s7.3242-11.031 7.3438-17.656v-275c-0.019531-6.625-2.6602-12.973-7.3438-17.656s-11.031-7.3242-17.656-7.3438h-51.75v-275c-0.019531-6.625-2.6602-12.973-7.3438-17.656s-11.031-7.3242-17.656-7.3438h-98.25c-3.5234-26.492-15.219-51.227-33.453-70.762-18.238-19.535-42.109-32.902-68.297-38.238v-41c-0.019531-6.625-2.6602-12.973-7.3438-17.656s-11.031-7.3242-17.656-7.3438h-400c-6.625 0.019531-12.973 2.6602-17.656 7.3438s-7.3242 11.031-7.3438 17.656v41c-26.199 5.3125-50.082 18.672-68.324 38.211-18.242 19.539-29.926 44.289-33.426 70.789h-98.25c-6.625 0.019531-12.973 2.6602-17.656 7.3438s-7.3242 11.031-7.3438 17.656v275h-48.25c-6.6367-0.023438-13.008 2.6016-17.703 7.2969-4.6914 4.6953-7.3203 11.066-7.2969 17.703v275c-0.023438 6.6367 2.6055 13.008 7.2969 17.703 4.6953 4.6953 11.066 7.3203 17.703 7.2969zm508.5-486.5c0.21484-7.3711 6.25-13.234 13.625-13.234s13.41 5.8633 13.625 13.234c-0.21484 7.3711-6.25 13.234-13.625 13.234s-13.41-5.8633-13.625-13.234zm50 0c0.21484-7.3711 6.25-13.234 13.625-13.234s13.41 5.8633 13.625 13.234c-0.21484 7.3711-6.25 13.234-13.625 13.234s-13.41-5.8633-13.625-13.234zm63.5 13.75c-7.3828-0.19922-13.262-6.2422-13.262-13.625s5.8789-13.426 13.262-13.625c7.3828 0.19922 13.262 6.2422 13.262 13.625s-5.8789 13.426-13.262 13.625zm13.75-238.75c-0.10156 7.4531-6.1719 13.441-13.625 13.441s-13.523-5.9883-13.625-13.441c0.10156-7.4531 6.1719-13.441 13.625-13.441s13.523 5.9883 13.625 13.441zm-50 0c-0.10156 7.4531-6.1719 13.441-13.625 13.441s-13.523-5.9883-13.625-13.441c0.10156-7.4531 6.1719-13.441 13.625-13.441s13.523 5.9883 13.625 13.441zm-63.75-13.5c7.5234 0 13.625 6.1016 13.625 13.625s-6.1016 13.625-13.625 13.625-13.625-6.1016-13.625-13.625 6.1016-13.625 13.625-13.625zm-301.5 116.25c-0.003906-16.262 5.082-32.113 14.543-45.34 9.457-13.223 22.82-23.16 38.207-28.41 0.71484 21.441-6.7578 56.133 25 57.5h400c6.625-0.019531 12.973-2.6602 17.656-7.3438s7.3242-11.031 7.3438-17.656v-32.5c72.488 22.461 71.227 144.93 0 167-0.96484-21.598 7.4453-58.176-25-59.5h-400c-6.625 0.019531-12.973 2.6602-17.656 7.3438s-7.3242 11.031-7.3438 17.656v34.5c-18.297-6.9414-33.586-20.066-43.219-37.098-9.6367-17.031-13.008-36.895-9.5312-56.152zm254.5 659.25c3.7539 24.664-3.3281 49.75-19.422 68.812s-39.637 30.25-64.578 30.688h-360.5c-22.238 0.007812-43.57-8.8047-59.316-24.504-15.75-15.703-24.625-37.008-24.684-59.246v-15.75c0.019531-6.625 2.6602-12.973 7.3438-17.656s11.031-7.3242 17.656-7.3438h478.5c6.625 0.019531 12.973 2.6602 17.656 7.3438s7.3242 11.031 7.3438 17.656zm575 0c3.7539 24.664-3.3281 49.75-19.422 68.812s-39.637 30.25-64.578 30.688h-360.5c-22.238 0.007812-43.57-8.8047-59.316-24.504-15.75-15.703-24.625-37.008-24.684-59.246v-15.75c0.019531-6.625 2.6602-12.973 7.3438-17.656s11.031-7.3242 17.656-7.3438h478.5c6.625 0.019531 12.973 2.6602 17.656 7.3438s7.3242 11.031 7.3438 17.656z" fill="#3b6af9"/>
</svg>
