<?xml version="1.0" encoding="UTF-8" standalone="no"?>
<!-- Created with Inkscape (http://www.inkscape.org/) -->

<svg
   width="500"
   height="500"
   viewBox="0 0 132.29166 132.29167"
   version="1.1"
   id="svg1"
   xml:space="preserve"
   inkscape:version="1.4.2 (ebf0e940, 2025-05-08)"
   sodipodi:docname="gpa-rok-with-label.svg"
   xmlns:inkscape="http://www.inkscape.org/namespaces/inkscape"
   xmlns:sodipodi="http://sodipodi.sourceforge.net/DTD/sodipodi-0.dtd"
   xmlns="http://www.w3.org/2000/svg"
   xmlns:svg="http://www.w3.org/2000/svg"><sodipodi:namedview
     id="namedview1"
     pagecolor="#ffffff"
     bordercolor="#000000"
     borderopacity="0.25"
     inkscape:showpageshadow="2"
     inkscape:pageopacity="0.0"
     inkscape:pagecheckerboard="0"
     inkscape:deskcolor="#d1d1d1"
     inkscape:document-units="mm"
     inkscape:zoom="0.71891835"
     inkscape:cx="396.42889"
     inkscape:cy="560.56435"
     inkscape:window-width="2560"
     inkscape:window-height="1387"
     inkscape:window-x="0"
     inkscape:window-y="25"
     inkscape:window-maximized="1"
     inkscape:current-layer="layer1" /><defs
     id="defs1" /><g
     inkscape:label="Layer 1"
     inkscape:groupmode="layer"
     id="layer1"><path
       d="M 16.457284,85.572907 H 59.32622 c 0.668254,-0.002 1.308563,-0.26833 1.780929,-0.74076 0.472366,-0.47242 0.738778,-1.11267 0.740758,-1.78092 V 55.312502 c -0.002,-0.66825 -0.268332,-1.30856 -0.740758,-1.78092 -0.472426,-0.47237 -1.112675,-0.73878 -1.780929,-0.74076 -5.919745,8.6e-4 -27.433093,-2.9e-4 -32.958646,0 v -25.21702 h 7.388587 c 0.300244,2.71436 1.456636,5.26249 3.301817,7.27551 1.845179,2.01303 4.283765,3.38614 6.961512,3.92085 v 3.93385 c 0.002,0.66825 0.26833,1.30856 0.740755,1.78093 0.472426,0.47236 1.112676,0.73878 1.780926,0.74075 h 40.347236 c 0.66825,-0.002 1.30856,-0.26833 1.78093,-0.74075 0.47236,-0.47243 0.73877,-1.11268 0.74075,-1.78093 v -3.93385 c 2.67815,-0.53469 5.11633,-1.90782 6.96151,-3.92085 1.845175,-2.01302 3.001635,-4.56115 3.301815,-7.27551 H 107.062 v 25.21702 c -5.01698,8.6e-4 -27.159743,-2.9e-4 -32.605603,0 -0.66944,-0.002 -1.3121,0.26242 -1.78567,0.73602 -0.47322,0.47361 -0.73839,1.11621 -0.73603,1.78567 v 27.738725 c -0.002,0.66943 0.26281,1.31209 0.73603,1.78566 0.4736,0.47361 1.1162,0.73839 1.78567,0.73603 h 42.868933 c 0.66825,-0.002 1.30856,-0.26833 1.78092,-0.74076 0.47237,-0.47242 0.73878,-1.11267 0.74076,-1.78092 V 55.312522 c -0.002,-0.66825 -0.26833,-1.30856 -0.74076,-1.78092 -0.47242,-0.47237 -1.11267,-0.73878 -1.78092,-0.74076 h -5.21993 v -27.73873 c -0.002,-0.66825 -0.26833,-1.30856 -0.74075,-1.78092 -0.47243,-0.47237 -1.11268,-0.73878 -1.78093,-0.74076 h -9.910288 c -0.3554,-2.6722 -1.53511,-5.16717 -3.374335,-7.13763 -1.83963,-1.97045 -4.24746,-3.31876 -6.88899,-3.85699 V 7.4002222 c -0.002,-0.66825 -0.26833,-1.30856 -0.74075,-1.78093 -0.47243,-0.47236 -1.11268,-0.73878 -1.78093,-0.74075 H 46.541191 c -0.66825,0.002 -1.308563,0.26833 -1.780926,0.74075 -0.472365,0.47243 -0.738779,1.11268 -0.740755,1.78093 v 4.1355898 c -2.642644,0.53586 -5.051677,1.88341 -6.891712,3.85427 -1.840035,1.97086 -3.018578,4.46735 -3.371617,7.14035 h -9.910289 c -0.668252,0.002 -1.308562,0.26833 -1.780928,0.74076 -0.472365,0.47242 -0.738778,1.11267 -0.740755,1.78092 v 27.73873 h -4.866885 c -0.669431,-0.002 -1.312092,0.26242 -1.785668,0.73602 -0.473212,0.47361 -0.738384,1.11621 -0.736024,1.78567 v 27.738725 c -0.0024,0.66943 0.262812,1.31209 0.736024,1.78566 0.473606,0.47361 1.116207,0.73839 1.785668,0.73603 z M 67.748707,36.500582 c 0.0217,-0.74351 0.63042,-1.33489 1.37433,-1.33489 0.7439,0 1.35264,0.59142 1.37432,1.33489 -0.0217,0.74351 -0.63042,1.33489 -1.37432,1.33489 -0.74391,0 -1.35264,-0.59142 -1.37433,-1.33489 z m 5.0434,0 c 0.0217,-0.74351 0.63043,-1.33489 1.37433,-1.33489 0.7439,0 1.35264,0.59142 1.37433,1.33489 -0.0217,0.74351 -0.63043,1.33489 -1.37433,1.33489 -0.7439,0 -1.35264,-0.59142 -1.37433,-1.33489 z m 6.40513,1.38694 c -0.74469,-0.0201 -1.33772,-0.62964 -1.33772,-1.37433 0,-0.74469 0.593,-1.35425 1.33772,-1.37433 0.74468,0.0201 1.33771,0.62964 1.33771,1.37433 0,0.74469 -0.59299,1.35426 -1.33771,1.37433 z m 1.38693,-24.08226 c -0.0102,0.75178 -0.62255,1.35577 -1.37433,1.35577 -0.75177,0 -1.36403,-0.60403 -1.37432,-1.35577 0.0102,-0.75178 0.62255,-1.35577 1.37432,-1.35577 0.75178,0 1.36404,0.60403 1.37433,1.35577 z m -5.0434,0 c -0.0102,0.75178 -0.62255,1.35577 -1.37433,1.35577 -0.75178,0 -1.36404,-0.60403 -1.37433,-1.35577 0.0102,-0.75178 0.62255,-1.35577 1.37433,-1.35577 0.75178,0 1.36404,0.60403 1.37433,1.35577 z m -6.43034,-1.36172 c 0.75887,0 1.37433,0.61546 1.37433,1.37433 0,0.75887 -0.61546,1.37433 -1.37433,1.37433 -0.75887,0 -1.37433,-0.61546 -1.37433,-1.37433 0,-0.75887 0.61546,-1.37433 1.37433,-1.37433 z m -30.411729,11.72592 c -2.86e-4,-1.64032 0.512612,-3.23918 1.466925,-4.57336 0.95391,-1.33378 2.301807,-2.33611 3.853867,-2.86566 0.07211,2.16271 -0.681649,5.66203 2.521701,5.79991 h 40.347236 c 0.66825,-0.002 1.30856,-0.26833 1.78093,-0.74075 0.47236,-0.47243 0.73877,-1.11268 0.74075,-1.78093 v -3.27821 c 7.311725,2.26559 7.18453,14.61881 0,16.84497 -0.0973,-2.17855 0.75099,-5.8681 -2.5217,-6.00165 H 46.541171 c -0.66825,0.002 -1.308563,0.26832 -1.780926,0.74075 -0.472365,0.47243 -0.738779,1.11268 -0.740755,1.78093 v 3.47995 c -1.845585,-0.70017 -3.387757,-2.02402 -4.35942,-3.74201 -0.972035,-1.71788 -1.312091,-3.72153 -0.961392,-5.66394 z m 25.670929,66.497295 c 0.37865,2.48781 -0.3357,5.01819 -1.95906,6.94093 -1.623363,1.92275 -3.998109,3.051263 -6.51386,3.095443 H 19.53376 c -2.243104,8.6e-4 -4.394822,-0.888113 -5.983091,-2.471673 -1.588673,-1.58393 -2.483877,-3.73293 -2.489828,-5.97603 v -1.58867 c 0.002,-0.66826 0.268329,-1.30857 0.740755,-1.78094 0.472426,-0.47237 1.112676,-0.73878 1.780927,-0.74075 h 48.265384 c 0.66825,0.002 1.30856,0.26832 1.78092,0.74075 0.47237,0.47243 0.73878,1.11268 0.74076,1.78094 z m 57.999143,0 c 0.37865,2.48781 -0.3357,5.01819 -1.95906,6.94093 -1.62336,1.92275 -3.99811,3.051263 -6.51386,3.095443 H 77.532907 c -2.2431,8.6e-4 -4.39482,-0.888113 -5.98309,-2.471673 -1.58867,-1.58393 -2.48388,-3.73293 -2.48983,-5.97603 v -1.58867 c 0.002,-0.66826 0.26833,-1.30857 0.74076,-1.78094 0.47242,-0.47237 1.11267,-0.73878 1.78092,-0.74075 h 48.265383 c 0.66825,0.002 1.30856,0.26832 1.78092,0.74075 0.47237,0.47243 0.73878,1.11268 0.74076,1.78094 z"
       fill="#3b6af9"
       id="path1"
       style="stroke-width:0.100868" /><text
       xml:space="preserve"
       style="font-size:25.4px;text-align:start;writing-mode:lr-tb;direction:ltr;text-anchor:start;fill:#000000;stroke-width:0.264583"
       x="16.311752"
       y="122.92194"
       id="text1"><tspan
         sodipodi:role="line"
         id="tspan1"
         style="font-size:25.4px;stroke-width:0.264583"
         x="16.311752"
         y="122.92194">gpa-rok</tspan></text></g></svg>
